<?xml version="1.0" encoding="UTF-8"?>
<svg version="1.1" xmlns="http://www.w3.org/2000/svg" width="380" height="380">
<path d="M0 0 C11.16140687 0.34988736 19.94592118 2.20944088 29 9 C29.969375 9.70125 30.93875 10.4025 31.9375 11.125 C57.2708592 32.96182785 60.11432484 78.48973231 62.40625 109.1015625 C62.7092873 113.73233629 62.88086686 118.36119556 63 123 C63.02723145 123.92925293 63.05446289 124.85850586 63.08251953 125.81591797 C63.16004614 128.77314381 63.20983453 131.72954697 63.25 134.6875 C63.27151123 135.59661133 63.29302246 136.50572266 63.31518555 137.44238281 C63.34757661 144.03060337 62.64184756 149.76971308 58.31640625 155.05859375 C57.73761719 155.51363281 57.15882813 155.96867188 56.5625 156.4375 C55.98628906 156.91058594 55.41007812 157.38367188 54.81640625 157.87109375 C50.12401742 160.78743863 44.30471418 160.57217945 38.98826599 159.65168762 C36.88935399 159.15304788 34.81307472 158.60053156 32.734375 158.0234375 C31.12363172 157.59763359 29.51270222 157.17253365 27.90161133 156.74804688 C27.0622403 156.52366943 26.22286926 156.29929199 25.35806274 156.06811523 C-1.3276099 148.97616689 -28.4139164 143.8313655 -56 142 C-57.38284845 141.88977295 -58.7656616 141.77910223 -60.1484375 141.66796875 C-111.07641279 137.95876361 -165.40302198 141.50729459 -215.09545898 153.64599609 C-217 154 -217 154 -221 154 C-222.98 145.585 -222.98 145.585 -225 137 C-186.84958622 126.86629634 -146.40633558 122.82844434 -107 122 C-106.03384766 121.97808594 -105.06769531 121.95617187 -104.07226562 121.93359375 C-53.49669175 120.95407973 -3.42843765 127.33675817 45 142 C44.85142468 79.28201785 44.85142468 79.28201785 19.125 24.5625 C13.1117627 19.43934602 5.58987534 18.89402213 -2 18 C-1.85860519 15.74971671 -1.71171997 13.49977794 -1.5625 11.25 C-1.44068359 9.37054688 -1.44068359 9.37054688 -1.31640625 7.453125 C-1.07484478 4.81682447 -0.75716066 2.51962706 0 0 Z " fill="#F7F4F9" transform="translate(271,110)"/>
<path d="M0 0 C3.48654476 1.4841373 5.64191072 3.46214052 8.25 6.1875 C11.63783937 9.71752971 15.19204095 12.94158772 18.88574219 16.1418457 C23.02672544 19.78122487 26.99818465 23.60374913 31 27.39453125 C35.57300831 31.70852152 40.24064293 35.89252295 45 40 C42.36113346 44.2026393 39.63559661 47.56638098 36 51 C32.74792908 49.58261511 30.68638933 47.87473588 28.25 45.3125 C25.70278824 42.69997512 23.14361352 40.18899229 20.375 37.8125 C14.07807006 32.4006807 8.06686098 26.66637999 2 21 C-5.62888912 27.43789256 -12.59717742 34.28665171 -19.09375 41.87109375 C-22.87473009 46.09370471 -26.95699653 50.03020987 -31 54 C-32.1055189 53.06409496 -33.20935453 52.12620142 -34.3125 51.1875 C-34.92738281 50.66542969 -35.54226562 50.14335937 -36.17578125 49.60546875 C-37.85424679 48.12827531 -39.43882034 46.59960869 -41 45 C-39.34817695 40.92943605 -36.46844434 38.02124541 -33.5 34.875 C-32.96608643 34.30241455 -32.43217285 33.7298291 -31.88208008 33.13989258 C-27.76299489 28.74673192 -23.51584412 24.49259014 -19.23046875 20.26171875 C-16.64580367 17.64084119 -14.26112298 14.89071466 -11.87109375 12.09375 C-8.10547378 7.88002912 -4.03092492 3.9579303 0 0 Z " fill="#F4F0F7" transform="translate(109,143)"/>
<path d="M0 0 C7.50057557 3.21695115 12.85089893 10.76081689 18.0546875 16.8359375 C20.88961411 19.98965104 23.91960625 22.94108264 26.93725586 25.91772461 C30.31117527 29.26361077 33.47768788 32.72853725 36.5625 36.33984375 C38.28180643 38.3254558 40.10564999 40.18142399 42 42 C40.55218207 45.44428265 38.72305391 47.36130962 35.875 49.75 C35.15054688 50.36359375 34.42609375 50.9771875 33.6796875 51.609375 C33.12539063 52.06828125 32.57109375 52.5271875 32 53 C31.32710938 52.32582031 30.65421875 51.65164062 29.9609375 50.95703125 C27.8063047 48.80164031 25.64289257 46.6553495 23.4765625 44.51171875 C10.93196075 32.06893481 10.93196075 32.06893481 6.4921875 26.61328125 C4.52100048 24.48212879 2.29335892 22.77214098 0 21 C-0.94359375 21.88300781 -1.8871875 22.76601562 -2.859375 23.67578125 C-6.23093875 26.82892803 -9.60742306 29.97675669 -12.98583984 33.12255859 C-14.25577929 34.30629609 -15.52450454 35.49133881 -16.79150391 36.67822266 C-18.37819938 38.16444137 -19.96969197 39.64533804 -21.5625 41.125 C-22.47128906 41.97320312 -23.38007813 42.82140625 -24.31640625 43.6953125 C-27.10171142 46.08735042 -29.90866629 48.02989893 -33 50 C-35.97 47.03 -38.94 44.06 -42 41 C-40.27083388 37.54166776 -39.35117683 36.1315117 -36.65625 33.64453125 C-35.99222168 33.02690918 -35.32819336 32.40928711 -34.64404297 31.77294922 C-33.93650879 31.12600098 -33.22897461 30.47905273 -32.5 29.8125 C-31.40969482 28.80340576 -31.40969482 28.80340576 -30.29736328 27.77392578 C-25.76572689 23.58893892 -21.19671232 19.44625363 -16.59375 15.33984375 C-11.0006733 10.29428209 -5.50953842 5.13641406 0 0 Z " fill="#F4F0F7" transform="translate(246,143)"/>
</svg>
