<?xml version="1.0" encoding="UTF-8"?>
<svg version="1.1" xmlns="http://www.w3.org/2000/svg" width="800" height="800">
<path d="M0 0 C1.65014828 -0.00187144 3.30029612 -0.00417346 4.95044327 -0.00686532 C9.456755 -0.01294876 13.96304808 -0.01285382 18.46936297 -0.01167095 C23.34074864 -0.01146606 28.21212845 -0.01699414 33.08351135 -0.02172852 C42.61771221 -0.03001702 52.15190688 -0.03278256 61.68611103 -0.03334089 C69.44166118 -0.03381698 77.19720929 -0.03587635 84.95275879 -0.03904152 C106.97089767 -0.04784376 128.98903169 -0.05246166 151.00717235 -0.05171105 C152.19291826 -0.05167109 153.37866418 -0.05163113 154.6003418 -0.05158997 C156.38114824 -0.05152864 156.38114824 -0.05152864 158.19793057 -0.05146609 C177.42481427 -0.0510599 196.65167835 -0.06062356 215.87855637 -0.07472833 C235.6497312 -0.08911721 255.42089649 -0.09599711 275.19207668 -0.09513456 C286.28027106 -0.09480342 297.36844488 -0.09751386 308.45663452 -0.10831261 C317.89984369 -0.11745078 327.34302299 -0.1195658 336.78623468 -0.11280318 C341.59679967 -0.10955444 346.40730747 -0.10942119 351.2178669 -0.11815643 C423.12440365 -0.24034407 423.12440365 -0.24034407 450.46801758 24.13371277 C451.01973633 24.62500671 451.57145508 25.11630066 452.13989258 25.6224823 C460.51834664 33.22986877 466.86767155 41.32134179 472.46801758 51.13371277 C472.95786133 51.96129089 473.44770508 52.78886902 473.95239258 53.64152527 C476.68835572 58.62368038 478.48423938 63.84669186 480.15551758 69.25871277 C480.35822266 69.89655701 480.56092773 70.53440125 480.76977539 71.1915741 C485.48511037 87.4138221 484.76043683 104.523229 484.74267578 121.22819519 C484.74594122 123.94522026 484.75215199 126.66223701 484.75816345 129.3792572 C484.77083446 135.96013238 484.77271365 142.54096662 484.77036319 149.12185194 C484.76857103 154.47884575 484.77034877 159.83582725 484.77458763 165.1928196 C484.77518282 165.95891436 484.77577801 166.72500913 484.77639123 167.51431889 C484.77760315 169.07129699 484.77881728 170.62827508 484.78003361 172.18525318 C484.79088022 186.74789538 484.78876055 201.31051435 484.78264876 215.87315784 C484.77748413 229.14992823 484.78872823 242.42662515 484.80774698 255.70338102 C484.82719322 269.38505602 484.83536942 283.06669637 484.83162373 296.74838525 C484.82972169 304.40986921 484.83210089 312.07129072 484.84633827 319.73276329 C484.85834012 326.2564642 484.85955973 332.78006422 484.8475481 339.30376675 C484.84171986 342.62194845 484.84206265 345.93979786 484.85255051 349.25798988 C484.9531748 383.59754534 480.4792986 413.81288619 455.46801758 439.13371277 C432.86707077 461.44929408 404.24609585 467.68316888 373.34074974 467.49132919 C372.48064608 467.48570591 371.62054241 467.48008263 370.734375 467.47428894 C368.86923232 467.47343949 367.00408864 467.47392399 365.13894653 467.47561646 C360.15058832 467.47646544 355.16245343 467.45902089 350.17414641 467.43789458 C344.93319233 467.41894147 339.69223124 467.41736285 334.45124817 467.41381836 C324.56021932 467.40455197 314.6692918 467.38001263 304.77830726 467.34976989 C293.50356303 467.31605597 282.22881356 467.29969746 270.95403135 467.28468359 C247.79197092 467.25345728 224.62999997 467.2008038 201.46801758 467.13371277 C201.46801758 468.78371277 201.46801758 470.43371277 201.46801758 472.13371277 C201.13801758 472.13371277 200.80801758 472.13371277 200.46801758 472.13371277 C200.46801758 470.48371277 200.46801758 468.83371277 200.46801758 467.13371277 C199.34324666 467.13647815 198.21847574 467.13924353 197.05962086 467.1420927 C169.61325049 467.20887453 142.16689075 467.25807665 114.72045612 467.28914928 C101.44723135 467.30457755 88.17406968 467.32558929 74.90087891 467.36003113 C63.32364955 467.39005773 51.74645924 467.40931709 40.16919202 467.41597825 C34.04669335 467.41986815 27.92430631 467.42892456 21.80184364 467.45090294 C16.02265455 467.4714782 10.24362159 467.47750467 4.46439934 467.47303581 C2.35914889 467.47385171 0.25389245 467.47969059 -1.85132599 467.49132919 C-35.90599145 467.67014019 -64.17308094 460.9661095 -89.02026367 436.70402527 C-108.75881122 415.90866429 -115.69572293 389.5135061 -115.67242432 361.47383118 C-115.67539544 360.34008714 -115.67836656 359.2063431 -115.68142772 358.03824317 C-115.69006061 354.26032569 -115.69161838 350.4824401 -115.69311523 346.70451355 C-115.69721376 343.9867535 -115.70275257 341.26899673 -115.7081604 338.55123901 C-115.72169122 331.18089028 -115.72776048 323.81054702 -115.73217106 316.44018793 C-115.73494291 311.82843442 -115.73918199 307.21668298 -115.74367523 302.60493088 C-115.75586201 289.80908655 -115.76616186 277.01324387 -115.76955032 264.21739388 C-115.76976989 263.39981279 -115.76998946 262.5822317 -115.77021568 261.73987543 C-115.77054309 260.51074498 -115.77054309 260.51074498 -115.77087712 259.2567836 C-115.77132057 257.59661937 -115.77176714 255.93645513 -115.7722168 254.27629089 C-115.77243823 253.4528106 -115.77265966 252.6293303 -115.7728878 251.78089605 C-115.77683013 238.45780694 -115.79426953 225.13477271 -115.81757632 211.81170477 C-115.84137154 198.09745895 -115.85375591 184.38324057 -115.85491824 170.6689738 C-115.85583053 162.98339334 -115.86146919 155.29788437 -115.87973785 147.61232376 C-115.89524975 141.06393514 -115.90019481 134.51564012 -115.89199975 127.96723659 C-115.8881317 124.63503825 -115.8905122 121.30317867 -115.9030571 117.97097969 C-116.01851855 85.365047 -112.45784147 55.24796441 -88.53198242 31.13371277 C-87.70698242 30.26746277 -86.88198242 29.40121277 -86.03198242 28.50871277 C-85.20698242 27.72496277 -84.38198242 26.94121277 -83.53198242 26.13371277 C-82.93514648 25.54203308 -82.33831055 24.95035339 -81.72338867 24.34074402 C-59.40280878 3.16690951 -29.34122888 -0.03179232 0 0 Z M0.33878744 67.46081819 C-1.22426705 67.49755684 -2.78738746 67.53160906 -4.35056436 67.56270622 C-23.12859623 67.81944476 -23.12859623 67.81944476 -38.73510742 77.28605652 C-44.49218 83.50907921 -46.73175122 88.42340704 -47.64080811 96.8848114 C-47.72506286 97.66613953 -47.80931762 98.44746766 -47.89612556 99.2524724 C-48.95601027 110.18285675 -48.81124726 121.14608459 -48.79077148 132.11613464 C-48.79348742 134.58216454 -48.79705171 137.04819362 -48.8013916 139.51422119 C-48.80950983 145.47351846 -48.80839753 151.43276927 -48.80256632 157.39206517 C-48.79801988 162.24226679 -48.79744969 167.09245432 -48.79961395 171.94265747 C-48.79992042 172.63718803 -48.80022688 173.3317186 -48.80054264 174.04729554 C-48.80118219 175.45892577 -48.80183062 176.87055599 -48.80248782 178.28218621 C-48.80816909 191.46939045 -48.80166802 204.65656674 -48.79088709 217.84376639 C-48.78195359 229.11962838 -48.78350626 240.39544917 -48.79272461 251.67131042 C-48.80346641 264.81649657 -48.80761997 277.96165831 -48.80150008 291.10684824 C-48.80086309 292.51282151 -48.80023435 293.91879479 -48.79961395 295.32476807 C-48.7993054 296.01624537 -48.79899685 296.70772267 -48.79867895 297.42015383 C-48.79696369 302.25550125 -48.79984164 307.09083299 -48.80457306 311.92617798 C-48.81082049 318.45330397 -48.80627143 324.98037096 -48.79478455 331.50749016 C-48.79216087 333.88975332 -48.79286335 336.27202307 -48.79730988 338.65428352 C-48.81515083 349.19165082 -48.79423186 359.69926585 -47.76580811 370.19511414 C-47.70509447 370.89107335 -47.64438084 371.58703256 -47.5818274 372.30408144 C-46.67458892 380.12258325 -42.98517689 386.55658206 -37.53198242 392.13371277 C-24.81600109 402.00568968 -7.71515236 400.2846661 7.56425476 400.26742554 C9.1548195 400.2692977 10.74538377 400.2716 12.33594733 400.27429086 C16.67283755 400.2803652 21.00970836 400.28028046 25.34660184 400.27909648 C30.03728933 400.27889137 34.72797077 400.28442176 39.4186554 400.28915405 C48.59577506 400.29743704 57.7728883 400.30020782 66.95001139 400.30076643 C74.41426951 400.30124268 81.87852552 400.30330288 89.34278297 400.30646706 C110.53508215 400.31526701 131.72737627 400.31988743 152.91967728 400.31913658 C154.63102882 400.31907665 154.63102882 400.31907665 156.37695312 400.3190155 C158.09040942 400.31895418 158.09040942 400.31895418 159.83848099 400.31889162 C178.34563486 400.31848528 196.85276837 400.32805354 215.35991635 400.34215387 C234.39208513 400.35653907 253.42424399 400.36342288 272.45641834 400.36256009 C283.12982056 400.36222888 293.80320143 400.36494289 304.47659874 400.37573814 C313.56447655 400.38487136 322.65232333 400.38699528 331.74020376 400.38022872 C336.37028 400.37697779 341.0002968 400.37685485 345.63036728 400.38558197 C349.88124805 400.39351146 354.1320229 400.39195067 358.38290129 400.38329784 C359.90839536 400.38177691 361.43389759 400.38352483 362.95938202 400.38915791 C371.01429324 400.41689612 378.99268041 400.1409977 387.01371479 399.36826038 C388.10419449 399.27712428 388.10419449 399.27712428 389.21670408 399.18414704 C397.23628432 398.31062725 403.70878184 394.76496549 409.46801758 389.13371277 C420.84741646 374.47603831 417.61757981 352.30574522 417.61328125 334.80485535 C417.61627787 332.36074269 417.61968155 329.9166305 417.62345886 327.47251892 C417.63134088 321.55112093 417.63451127 315.6297323 417.63507124 309.70833013 C417.63554891 304.88807852 417.63761607 300.06783016 417.64077187 295.24757957 C417.6495636 281.53681997 417.65419352 267.82606814 417.65344139 254.1153057 C417.65340144 253.3784772 417.65336148 252.6416487 417.65332031 251.88249207 C417.65327943 251.14474868 417.65323855 250.40700529 417.65319643 249.64690604 C417.65279029 237.70077759 417.66235558 225.7546807 417.67645868 213.80856136 C417.69087473 201.49879908 417.69772601 189.18905215 417.6968649 176.87928122 C417.69653475 169.98578949 417.69920137 163.09233087 417.71004295 156.19884682 C417.72018346 149.71035334 417.71975961 143.22191143 417.71252632 136.7334137 C417.71148841 134.36608464 417.7137956 131.99875112 417.71988678 129.63142967 C417.74564164 118.91938352 417.68892459 108.24674881 416.70283508 97.57272339 C416.64206164 96.82913946 416.58128819 96.08555553 416.51867312 95.31943876 C415.60197621 86.88411293 411.77773277 80.66546469 405.67895508 74.89543152 C398.07849314 68.83923305 389.57244526 68.09222161 380.11091614 67.82185555 C379.06770212 67.79114684 379.06770212 67.79114684 378.00341308 67.75981776 C375.72454767 67.69473594 373.44558106 67.63645693 371.16650391 67.57929993 C369.97629558 67.54784263 369.97629558 67.54784263 368.76204264 67.51574983 C352.36729719 67.0862698 335.97953474 66.9887773 319.58002234 67.0029881 C315.57992751 67.00531379 311.57983643 67.00172814 307.57974243 66.99900818 C299.80009312 66.99462584 292.02045361 66.99549272 284.24080396 66.99842082 C277.90234629 67.00070506 271.56389131 67.00097451 265.22543335 66.999897 C264.31373436 66.99974377 263.40203536 66.99959054 262.46270913 66.99943266 C260.60901268 66.99911285 258.75531624 66.99878863 256.90161979 66.99846007 C239.63207216 66.99562736 222.36252988 66.99885731 205.09298313 67.00426044 C190.36415079 67.00872644 175.63532634 67.00794988 160.90649414 67.00334167 C143.6870209 66.99795652 126.46755232 66.99590184 109.24807835 66.99895394 C107.40225283 66.99927239 105.55642732 66.99958677 103.71060181 66.999897 C102.80307417 67.00005128 101.89554654 67.00020555 100.96051806 67.0003645 C94.65014035 67.00121791 88.33976567 66.99979255 82.02938843 66.99741745 C74.30988247 66.99457506 66.59038664 66.99544913 58.8708818 67.00069819 C54.95335062 67.00327664 51.03583615 67.00444373 47.11830521 67.00104904 C31.52203853 66.98883267 15.93116538 67.08845899 0.33878744 67.46081819 Z " fill="#FEFEFE" transform="translate(215.531982421875,132.8662872314453)"/>
<path d="M0 0 C13.15998872 -0.06170433 26.31991407 -0.10422449 39.48001957 -0.13040066 C42.51804526 -0.13754552 45.55604619 -0.14784163 48.59405994 -0.15890026 C53.34794701 -0.17545966 58.10173652 -0.18156249 62.8556509 -0.17945385 C64.57749693 -0.1801623 66.2993456 -0.18417592 68.02117443 -0.19190502 C83.13546418 -0.25533909 96.58292884 0.21554616 108.25827503 10.85461903 C114.83858055 18.47963285 117.51057825 27.4843778 117.36374378 37.36633778 C116.57760696 47.36774509 112.07334971 54.53526791 104.90280628 61.29993153 C94.2835047 69.5005536 82.68328417 68.66927844 69.87546253 68.69446278 C67.71454531 68.71273946 65.55364073 68.73256551 63.39275074 68.75381947 C57.54999705 68.80543101 51.70741086 68.83094775 45.86446857 68.849473 C42.21267639 68.86244087 38.5609681 68.88154912 34.90921497 68.90274525 C18.29242906 68.99831547 1.67596358 69.03459757 -14.94107342 69.04619312 C-18.83164215 69.04991664 -22.72219481 69.05657062 -26.61275768 69.06421375 C-41.54653347 69.0924439 -56.47948145 69.08229075 -71.4131422 69.01462269 C-76.10353583 68.99387077 -80.79368869 68.98573922 -85.48412609 68.98831654 C-91.00904286 68.98999874 -96.53303764 68.96195203 -102.05771351 68.91113377 C-104.07549962 68.89713465 -106.09338391 68.89301657 -108.11120701 68.89984989 C-121.53530256 68.93620426 -131.40482615 68.01112891 -141.84719372 58.67493153 C-148.38065093 51.45792526 -151.34225041 42.32492673 -151.09328747 32.65930653 C-150.11812024 22.31943817 -145.4950697 13.80163195 -137.53469372 7.17493153 C-130.56673851 1.68020113 -122.55725502 0.60345182 -113.94411755 0.61755848 C-112.98980028 0.60737533 -112.03548302 0.59719217 -111.05224705 0.58670044 C-107.88617986 0.55653689 -104.72041736 0.54728173 -101.55422497 0.53821278 C-99.28853464 0.52114509 -97.02285331 0.50284576 -94.75718212 0.48340321 C-88.65723424 0.43501393 -82.55732912 0.40526324 -76.45724773 0.37976933 C-71.38729882 0.35662239 -66.31743462 0.32355668 -61.24754238 0.29046631 C-46.97791381 0.1976787 -32.70826469 0.13289038 -18.43844128 0.0792284 C-12.29227674 0.05608348 -6.14613999 0.02887551 0 0 Z " fill="#FEFEFE" transform="translate(416.84719371795654,631.9500684738159)"/>
<path d="M0 0 C0.33 0 0.66 0 1 0 C1 62.04 1 124.08 1 188 C0.67 188 0.34 188 0 188 C0 125.96 0 63.92 0 0 Z " fill="#983232" transform="translate(403,232)"/>
<path d="M0 0 C6.6 0 13.2 0 20 0 C20 0.33 20 0.66 20 1 C13.4 1 6.8 1 0 1 C0 0.67 0 0.34 0 0 Z " fill="#D88285" transform="translate(336,525)"/>
<path d="M0 0 C0.33 0 0.66 0 1 0 C1 1.65 1 3.3 1 5 C0.67 5 0.34 5 0 5 C0 3.35 0 1.7 0 0 Z " fill="#D57C80" transform="translate(275,602)"/>
<path d="M0 0 C1 4 1 4 1 4 Z " fill="#D3777B" transform="translate(415,607)"/>
<path d="M0 0 C4 1 4 1 4 1 Z " fill="#D17578" transform="translate(330,526)"/>
<path d="" fill="#D3787D" transform="translate(0,0)"/>
<path d="" fill="#D88083" transform="translate(0,0)"/>
<path d="M0 0 C3 1 3 1 3 1 Z " fill="#CE7075" transform="translate(326,527)"/>
<path d="M0 0 C3 1 3 1 3 1 Z " fill="#D3787C" transform="translate(358,526)"/>
<path d="" fill="#D07377" transform="translate(0,0)"/>
<path d="" fill="#D67D81" transform="translate(0,0)"/>
<path d="" fill="#CE7076" transform="translate(0,0)"/>
<path d="" fill="#D77F82" transform="translate(0,0)"/>
<path d="" fill="#CD6E73" transform="translate(0,0)"/>
<path d="" fill="#D2777B" transform="translate(0,0)"/>
<path d="" fill="#CA686F" transform="translate(0,0)"/>
<path d="" fill="#D47A7F" transform="translate(0,0)"/>
<path d="" fill="#D47B7E" transform="translate(0,0)"/>
<path d="" fill="#D88083" transform="translate(0,0)"/>
<path d="" fill="#D57B7F" transform="translate(0,0)"/>
<path d="" fill="#D1767A" transform="translate(0,0)"/>
<path d="" fill="#892424" transform="translate(0,0)"/>
<path d="M0 0 C2 1 2 1 2 1 Z " fill="#D67E82" transform="translate(374,531)"/>
<path d="M0 0 C2 1 2 1 2 1 Z " fill="#CD6E73" transform="translate(372,530)"/>
<path d="M0 0 C2 1 2 1 2 1 Z " fill="#D77F82" transform="translate(318,530)"/>
<path d="M0 0 C2 1 2 1 2 1 Z " fill="#D98284" transform="translate(369,529)"/>
<path d="M0 0 C2 1 2 1 2 1 Z " fill="#C9676D" transform="translate(320,529)"/>
<path d="M0 0 C2 1 2 1 2 1 Z " fill="#D98387" transform="translate(366,528)"/>
<path d="M0 0 C2 1 2 1 2 1 Z " fill="#CD6D71" transform="translate(323,528)"/>
<path d="M0 0 C2 1 2 1 2 1 Z " fill="#D17479" transform="translate(363,527)"/>
<path d="" fill="#912222" transform="translate(0,0)"/>
<path d="" fill="#924949" transform="translate(0,0)"/>
<path d="" fill="#804040" transform="translate(0,0)"/>
<path d="" fill="#99334C" transform="translate(0,0)"/>
<path d="" fill="#550055" transform="translate(0,0)"/>
<path d="" fill="#550055" transform="translate(0,0)"/>
<path d="" fill="#AA2A2A" transform="translate(0,0)"/>
<path d="" fill="#800000" transform="translate(0,0)"/>
<path d="" fill="#800000" transform="translate(0,0)"/>
<path d="" fill="#804040" transform="translate(0,0)"/>
<path d="" fill="#993333" transform="translate(0,0)"/>
<path d="" fill="#AA3838" transform="translate(0,0)"/>
<path d="" fill="#804040" transform="translate(0,0)"/>
<path d="" fill="#800000" transform="translate(0,0)"/>
<path d="" fill="#9D3B3B" transform="translate(0,0)"/>
<path d="" fill="#800000" transform="translate(0,0)"/>
<path d="" fill="#800000" transform="translate(0,0)"/>
<path d="" fill="#924949" transform="translate(0,0)"/>
<path d="" fill="#550055" transform="translate(0,0)"/>
<path d="" fill="#AA3838" transform="translate(0,0)"/>
<path d="" fill="#800000" transform="translate(0,0)"/>
<path d="" fill="#AA2A2A" transform="translate(0,0)"/>
<path d="" fill="#804040" transform="translate(0,0)"/>
<path d="" fill="#804040" transform="translate(0,0)"/>
<path d="" fill="#804040" transform="translate(0,0)"/>
<path d="" fill="#800000" transform="translate(0,0)"/>
<path d="" fill="#550055" transform="translate(0,0)"/>
<path d="" fill="#550055" transform="translate(0,0)"/>
<path d="" fill="#800000" transform="translate(0,0)"/>
<path d="" fill="#AA2A2A" transform="translate(0,0)"/>
<path d="" fill="#9D3B3B" transform="translate(0,0)"/>
<path d="" fill="#993333" transform="translate(0,0)"/>
<path d="" fill="#A24545" transform="translate(0,0)"/>
<path d="" fill="#550055" transform="translate(0,0)"/>
<path d="" fill="#800000" transform="translate(0,0)"/>
<path d="" fill="#550055" transform="translate(0,0)"/>
<path d="" fill="#993333" transform="translate(0,0)"/>
<path d="" fill="#550055" transform="translate(0,0)"/>
<path d="" fill="#A04040" transform="translate(0,0)"/>
<path d="" fill="#9D3B3B" transform="translate(0,0)"/>
<path d="" fill="#804040" transform="translate(0,0)"/>
<path d="" fill="#A04040" transform="translate(0,0)"/>
<path d="" fill="#800000" transform="translate(0,0)"/>
<path d="" fill="#800000" transform="translate(0,0)"/>
<path d="" fill="#550055" transform="translate(0,0)"/>
<path d="" fill="#804040" transform="translate(0,0)"/>
<path d="" fill="#924949" transform="translate(0,0)"/>
<path d="" fill="#AA2A2A" transform="translate(0,0)"/>
<path d="" fill="#A24545" transform="translate(0,0)"/>
<path d="" fill="#800000" transform="translate(0,0)"/>
<path d="" fill="#99334C" transform="translate(0,0)"/>
<path d="" fill="#A04040" transform="translate(0,0)"/>
<path d="" fill="#550055" transform="translate(0,0)"/>
<path d="" fill="#924949" transform="translate(0,0)"/>
<path d="" fill="#A04040" transform="translate(0,0)"/>
<path d="" fill="#804040" transform="translate(0,0)"/>
<path d="" fill="#993333" transform="translate(0,0)"/>
<path d="" fill="#804040" transform="translate(0,0)"/>
<path d="" fill="#550055" transform="translate(0,0)"/>
<path d="" fill="#550055" transform="translate(0,0)"/>
<path d="" fill="#804040" transform="translate(0,0)"/>
<path d="" fill="#800000" transform="translate(0,0)"/>
<path d="" fill="#924949" transform="translate(0,0)"/>
<path d="" fill="#924949" transform="translate(0,0)"/>
<path d="" fill="#800000" transform="translate(0,0)"/>
<path d="" fill="#AA2A2A" transform="translate(0,0)"/>
<path d="" fill="#924949" transform="translate(0,0)"/>
<path d="" fill="#A04040" transform="translate(0,0)"/>
<path d="" fill="#A04040" transform="translate(0,0)"/>
<path d="" fill="#800000" transform="translate(0,0)"/>
<path d="" fill="#924949" transform="translate(0,0)"/>
<path d="" fill="#550055" transform="translate(0,0)"/>
<path d="" fill="#99334C" transform="translate(0,0)"/>
<path d="" fill="#A04040" transform="translate(0,0)"/>
<path d="" fill="#804040" transform="translate(0,0)"/>
<path d="" fill="#99334C" transform="translate(0,0)"/>
<path d="" fill="#800000" transform="translate(0,0)"/>
<path d="" fill="#804040" transform="translate(0,0)"/>
<path d="" fill="#A24545" transform="translate(0,0)"/>
<path d="" fill="#A04040" transform="translate(0,0)"/>
<path d="" fill="#800000" transform="translate(0,0)"/>
<path d="" fill="#800000" transform="translate(0,0)"/>
<path d="" fill="#99334C" transform="translate(0,0)"/>
<path d="" fill="#550055" transform="translate(0,0)"/>
<path d="" fill="#AA3838" transform="translate(0,0)"/>
<path d="" fill="#993333" transform="translate(0,0)"/>
<path d="" fill="#993333" transform="translate(0,0)"/>
<path d="" fill="#804040" transform="translate(0,0)"/>
<path d="" fill="#A04040" transform="translate(0,0)"/>
<path d="" fill="#804040" transform="translate(0,0)"/>
<path d="" fill="#99334C" transform="translate(0,0)"/>
<path d="" fill="#924949" transform="translate(0,0)"/>
<path d="" fill="#A04040" transform="translate(0,0)"/>
<path d="" fill="#A24545" transform="translate(0,0)"/>
<path d="" fill="#924949" transform="translate(0,0)"/>
<path d="" fill="#550055" transform="translate(0,0)"/>
<path d="" fill="#550055" transform="translate(0,0)"/>
<path d="" fill="#A04040" transform="translate(0,0)"/>
<path d="" fill="#99334C" transform="translate(0,0)"/>
<path d="" fill="#800000" transform="translate(0,0)"/>
<path d="" fill="#AA3838" transform="translate(0,0)"/>
<path d="" fill="#924949" transform="translate(0,0)"/>
<path d="" fill="#804040" transform="translate(0,0)"/>
<path d="" fill="#800000" transform="translate(0,0)"/>
<path d="" fill="#800000" transform="translate(0,0)"/>
<path d="" fill="#9D3B3B" transform="translate(0,0)"/>
<path d="" fill="#550055" transform="translate(0,0)"/>
<path d="" fill="#9D3B3B" transform="translate(0,0)"/>
<path d="" fill="#993333" transform="translate(0,0)"/>
<path d="" fill="#9D3B3B" transform="translate(0,0)"/>
<path d="" fill="#AA2A2A" transform="translate(0,0)"/>
<path d="" fill="#AA2A2A" transform="translate(0,0)"/>
<path d="" fill="#A24545" transform="translate(0,0)"/>
<path d="" fill="#993333" transform="translate(0,0)"/>
<path d="" fill="#800000" transform="translate(0,0)"/>
<path d="" fill="#A24545" transform="translate(0,0)"/>
<path d="" fill="#AA2A2A" transform="translate(0,0)"/>
<path d="" fill="#993333" transform="translate(0,0)"/>
<path d="" fill="#A04040" transform="translate(0,0)"/>
<path d="" fill="#99334C" transform="translate(0,0)"/>
<path d="" fill="#924949" transform="translate(0,0)"/>
<path d="" fill="#800000" transform="translate(0,0)"/>
<path d="" fill="#800000" transform="translate(0,0)"/>
<path d="" fill="#800000" transform="translate(0,0)"/>
<path d="" fill="#AA3838" transform="translate(0,0)"/>
<path d="" fill="#A24545" transform="translate(0,0)"/>
<path d="" fill="#804040" transform="translate(0,0)"/>
<path d="" fill="#A24545" transform="translate(0,0)"/>
<path d="" fill="#800000" transform="translate(0,0)"/>
<path d="" fill="#AA2A2A" transform="translate(0,0)"/>
<path d="" fill="#993333" transform="translate(0,0)"/>
<path d="" fill="#993333" transform="translate(0,0)"/>
<path d="" fill="#AA2A2A" transform="translate(0,0)"/>
<path d="" fill="#800000" transform="translate(0,0)"/>
<path d="" fill="#99334C" transform="translate(0,0)"/>
<path d="" fill="#A24545" transform="translate(0,0)"/>
<path d="" fill="#550055" transform="translate(0,0)"/>
<path d="" fill="#E08E8F" transform="translate(0,0)"/>
<path d="" fill="#C76369" transform="translate(0,0)"/>
<path d="" fill="#A04040" transform="translate(0,0)"/>
<path d="" fill="#D57C7F" transform="translate(0,0)"/>
<path d="" fill="#A04040" transform="translate(0,0)"/>
<path d="" fill="#DD8A8D" transform="translate(0,0)"/>
<path d="" fill="#A04040" transform="translate(0,0)"/>
<path d="" fill="#800000" transform="translate(0,0)"/>
<path d="" fill="#550055" transform="translate(0,0)"/>
<path d="" fill="#D57C7F" transform="translate(0,0)"/>
<path d="" fill="#A04040" transform="translate(0,0)"/>
<path d="" fill="#A04040" transform="translate(0,0)"/>
<path d="" fill="#A24545" transform="translate(0,0)"/>
<path d="" fill="#AA2A2A" transform="translate(0,0)"/>
<path d="" fill="#550055" transform="translate(0,0)"/>
<path d="" fill="#800000" transform="translate(0,0)"/>
<path d="" fill="#A24545" transform="translate(0,0)"/>
<path d="" fill="#993333" transform="translate(0,0)"/>
<path d="" fill="#800000" transform="translate(0,0)"/>
<path d="" fill="#AA2A2A" transform="translate(0,0)"/>
<path d="" fill="#CF7176" transform="translate(0,0)"/>
<path d="" fill="#993333" transform="translate(0,0)"/>
<path d="" fill="#9D3B3B" transform="translate(0,0)"/>
<path d="" fill="#99334C" transform="translate(0,0)"/>
<path d="" fill="#804040" transform="translate(0,0)"/>
<path d="" fill="#AA3838" transform="translate(0,0)"/>
<path d="" fill="#AA2A2A" transform="translate(0,0)"/>
<path d="" fill="#AA3838" transform="translate(0,0)"/>
<path d="" fill="#804040" transform="translate(0,0)"/>
<path d="" fill="#924949" transform="translate(0,0)"/>
<path d="" fill="#AA2A2A" transform="translate(0,0)"/>
<path d="" fill="#924949" transform="translate(0,0)"/>
<path d="" fill="#924949" transform="translate(0,0)"/>
<path d="" fill="#AA2A2A" transform="translate(0,0)"/>
<path d="" fill="#99334C" transform="translate(0,0)"/>
<path d="" fill="#800000" transform="translate(0,0)"/>
<path d="" fill="#550055" transform="translate(0,0)"/>
<path d="" fill="#800000" transform="translate(0,0)"/>
<path d="" fill="#99334C" transform="translate(0,0)"/>
<path d="" fill="#993333" transform="translate(0,0)"/>
<path d="" fill="#804040" transform="translate(0,0)"/>
<path d="" fill="#A04040" transform="translate(0,0)"/>
<path d="" fill="#A24545" transform="translate(0,0)"/>
<path d="" fill="#804040" transform="translate(0,0)"/>
<path d="" fill="#9D3B3B" transform="translate(0,0)"/>
<path d="" fill="#800000" transform="translate(0,0)"/>
<path d="" fill="#9D3B3B" transform="translate(0,0)"/>
<path d="" fill="#AA3838" transform="translate(0,0)"/>
<path d="" fill="#993333" transform="translate(0,0)"/>
<path d="" fill="#A04040" transform="translate(0,0)"/>
<path d="" fill="#800000" transform="translate(0,0)"/>
<path d="" fill="#800000" transform="translate(0,0)"/>
<path d="" fill="#A24545" transform="translate(0,0)"/>
<path d="" fill="#800000" transform="translate(0,0)"/>
<path d="" fill="#A24545" transform="translate(0,0)"/>
<path d="" fill="#9D3B3B" transform="translate(0,0)"/>
<path d="" fill="#AA3838" transform="translate(0,0)"/>
<path d="" fill="#804040" transform="translate(0,0)"/>
<path d="" fill="#800000" transform="translate(0,0)"/>
<path d="" fill="#550055" transform="translate(0,0)"/>
<path d="" fill="#99334C" transform="translate(0,0)"/>
<path d="" fill="#AA3838" transform="translate(0,0)"/>
<path d="" fill="#800000" transform="translate(0,0)"/>
<path d="" fill="#804040" transform="translate(0,0)"/>
<path d="" fill="#924949" transform="translate(0,0)"/>
<path d="" fill="#800000" transform="translate(0,0)"/>
<path d="" fill="#AA2A2A" transform="translate(0,0)"/>
<path d="" fill="#99334C" transform="translate(0,0)"/>
<path d="" fill="#804040" transform="translate(0,0)"/>
<path d="" fill="#A24545" transform="translate(0,0)"/>
<path d="" fill="#A04040" transform="translate(0,0)"/>
<path d="" fill="#924949" transform="translate(0,0)"/>
<path d="" fill="#800000" transform="translate(0,0)"/>
<path d="" fill="#924949" transform="translate(0,0)"/>
<path d="" fill="#550055" transform="translate(0,0)"/>
<path d="" fill="#800000" transform="translate(0,0)"/>
<path d="" fill="#800000" transform="translate(0,0)"/>
<path d="" fill="#550055" transform="translate(0,0)"/>
<path d="" fill="#A04040" transform="translate(0,0)"/>
<path d="" fill="#550055" transform="translate(0,0)"/>
<path d="" fill="#A04040" transform="translate(0,0)"/>
<path d="" fill="#99334C" transform="translate(0,0)"/>
<path d="" fill="#800000" transform="translate(0,0)"/>
<path d="" fill="#804040" transform="translate(0,0)"/>
<path d="" fill="#99334C" transform="translate(0,0)"/>
<path d="" fill="#99334C" transform="translate(0,0)"/>
<path d="" fill="#A04040" transform="translate(0,0)"/>
<path d="" fill="#99334C" transform="translate(0,0)"/>
<path d="" fill="#993333" transform="translate(0,0)"/>
<path d="" fill="#550055" transform="translate(0,0)"/>
<path d="" fill="#9D3B3B" transform="translate(0,0)"/>
<path d="" fill="#800000" transform="translate(0,0)"/>
<path d="" fill="#800000" transform="translate(0,0)"/>
<path d="" fill="#804040" transform="translate(0,0)"/>
<path d="" fill="#993333" transform="translate(0,0)"/>
<path d="" fill="#AA3838" transform="translate(0,0)"/>
<path d="" fill="#99334C" transform="translate(0,0)"/>
<path d="" fill="#A04040" transform="translate(0,0)"/>
<path d="" fill="#A04040" transform="translate(0,0)"/>
<path d="" fill="#800000" transform="translate(0,0)"/>
<path d="" fill="#99334C" transform="translate(0,0)"/>
<path d="" fill="#924949" transform="translate(0,0)"/>
<path d="" fill="#804040" transform="translate(0,0)"/>
<path d="" fill="#804040" transform="translate(0,0)"/>
<path d="" fill="#9D3B3B" transform="translate(0,0)"/>
<path d="" fill="#99334C" transform="translate(0,0)"/>
<path d="" fill="#800000" transform="translate(0,0)"/>
<path d="" fill="#800000" transform="translate(0,0)"/>
<path d="" fill="#550055" transform="translate(0,0)"/>
<path d="" fill="#993333" transform="translate(0,0)"/>
<path d="" fill="#800000" transform="translate(0,0)"/>
<path d="" fill="#804040" transform="translate(0,0)"/>
<path d="" fill="#800000" transform="translate(0,0)"/>
<path d="" fill="#AA2A2A" transform="translate(0,0)"/>
<path d="" fill="#AA2A2A" transform="translate(0,0)"/>
<path d="" fill="#800000" transform="translate(0,0)"/>
<path d="" fill="#804040" transform="translate(0,0)"/>
<path d="" fill="#99334C" transform="translate(0,0)"/>
<path d="" fill="#804040" transform="translate(0,0)"/>
<path d="" fill="#AA2A2A" transform="translate(0,0)"/>
<path d="" fill="#993333" transform="translate(0,0)"/>
<path d="" fill="#AA2A2A" transform="translate(0,0)"/>
<path d="" fill="#993333" transform="translate(0,0)"/>
<path d="" fill="#AA3838" transform="translate(0,0)"/>
<path d="" fill="#AA2A2A" transform="translate(0,0)"/>
<path d="" fill="#800000" transform="translate(0,0)"/>
<path d="" fill="#800000" transform="translate(0,0)"/>
<path d="" fill="#A24545" transform="translate(0,0)"/>
<path d="" fill="#A24545" transform="translate(0,0)"/>
<path d="" fill="#993333" transform="translate(0,0)"/>
<path d="" fill="#AA2A2A" transform="translate(0,0)"/>
<path d="" fill="#800000" transform="translate(0,0)"/>
<path d="" fill="#9D3B3B" transform="translate(0,0)"/>
<path d="" fill="#800000" transform="translate(0,0)"/>
<path d="" fill="#A04040" transform="translate(0,0)"/>
<path d="" fill="#AA2A2A" transform="translate(0,0)"/>
<path d="" fill="#924949" transform="translate(0,0)"/>
<path d="" fill="#924949" transform="translate(0,0)"/>
<path d="" fill="#A04040" transform="translate(0,0)"/>
<path d="" fill="#A04040" transform="translate(0,0)"/>
<path d="" fill="#A04040" transform="translate(0,0)"/>
<path d="" fill="#AA2A2A" transform="translate(0,0)"/>
<path d="" fill="#AA2A2A" transform="translate(0,0)"/>
<path d="" fill="#800000" transform="translate(0,0)"/>
<path d="" fill="#A04040" transform="translate(0,0)"/>
<path d="" fill="#804040" transform="translate(0,0)"/>
<path d="" fill="#550055" transform="translate(0,0)"/>
<path d="" fill="#804040" transform="translate(0,0)"/>
<path d="" fill="#800000" transform="translate(0,0)"/>
<path d="" fill="#800000" transform="translate(0,0)"/>
<path d="" fill="#550055" transform="translate(0,0)"/>
<path d="" fill="#993333" transform="translate(0,0)"/>
<path d="" fill="#804040" transform="translate(0,0)"/>
<path d="" fill="#800000" transform="translate(0,0)"/>
<path d="" fill="#804040" transform="translate(0,0)"/>
<path d="" fill="#AA3838" transform="translate(0,0)"/>
<path d="" fill="#800000" transform="translate(0,0)"/>
<path d="" fill="#550055" transform="translate(0,0)"/>
<path d="" fill="#AA2A2A" transform="translate(0,0)"/>
<path d="" fill="#800000" transform="translate(0,0)"/>
<path d="" fill="#99334C" transform="translate(0,0)"/>
<path d="" fill="#924949" transform="translate(0,0)"/>
<path d="" fill="#800000" transform="translate(0,0)"/>
<path d="" fill="#9D3B3B" transform="translate(0,0)"/>
<path d="" fill="#993333" transform="translate(0,0)"/>
<path d="" fill="#800000" transform="translate(0,0)"/>
<path d="" fill="#924949" transform="translate(0,0)"/>
<path d="" fill="#AA3838" transform="translate(0,0)"/>
<path d="" fill="#AA2A2A" transform="translate(0,0)"/>
<path d="" fill="#800000" transform="translate(0,0)"/>
<path d="" fill="#AA2A2A" transform="translate(0,0)"/>
<path d="" fill="#9D3B3B" transform="translate(0,0)"/>
<path d="" fill="#AA3838" transform="translate(0,0)"/>
<path d="" fill="#99334C" transform="translate(0,0)"/>
<path d="" fill="#9D3B3B" transform="translate(0,0)"/>
<path d="" fill="#9D3B3B" transform="translate(0,0)"/>
<path d="" fill="#A24545" transform="translate(0,0)"/>
<path d="" fill="#804040" transform="translate(0,0)"/>
<path d="" fill="#800000" transform="translate(0,0)"/>
<path d="" fill="#924949" transform="translate(0,0)"/>
<path d="" fill="#A24545" transform="translate(0,0)"/>
<path d="" fill="#AA2A2A" transform="translate(0,0)"/>
<path d="" fill="#9D3B3B" transform="translate(0,0)"/>
<path d="" fill="#550055" transform="translate(0,0)"/>
<path d="" fill="#A04040" transform="translate(0,0)"/>
<path d="" fill="#924949" transform="translate(0,0)"/>
<path d="" fill="#550055" transform="translate(0,0)"/>
<path d="" fill="#993333" transform="translate(0,0)"/>
<path d="" fill="#99334C" transform="translate(0,0)"/>
<path d="" fill="#800000" transform="translate(0,0)"/>
<path d="" fill="#550055" transform="translate(0,0)"/>
<path d="" fill="#9D3B3B" transform="translate(0,0)"/>
<path d="" fill="#AA3838" transform="translate(0,0)"/>
<path d="" fill="#993333" transform="translate(0,0)"/>
<path d="" fill="#9D3B3B" transform="translate(0,0)"/>
<path d="" fill="#99334C" transform="translate(0,0)"/>
<path d="" fill="#924949" transform="translate(0,0)"/>
<path d="" fill="#99334C" transform="translate(0,0)"/>
<path d="" fill="#550055" transform="translate(0,0)"/>
<path d="" fill="#550055" transform="translate(0,0)"/>
<path d="" fill="#9D3B3B" transform="translate(0,0)"/>
<path d="" fill="#550055" transform="translate(0,0)"/>
<path d="" fill="#550055" transform="translate(0,0)"/>
<path d="" fill="#993333" transform="translate(0,0)"/>
<path d="" fill="#A04040" transform="translate(0,0)"/>
<path d="" fill="#AA2A2A" transform="translate(0,0)"/>
<path d="" fill="#99334C" transform="translate(0,0)"/>
<path d="" fill="#993333" transform="translate(0,0)"/>
<path d="" fill="#9D3B3B" transform="translate(0,0)"/>
<path d="" fill="#924949" transform="translate(0,0)"/>
<path d="" fill="#99334C" transform="translate(0,0)"/>
<path d="" fill="#550055" transform="translate(0,0)"/>
<path d="" fill="#993333" transform="translate(0,0)"/>
<path d="" fill="#A04040" transform="translate(0,0)"/>
<path d="" fill="#550055" transform="translate(0,0)"/>
<path d="" fill="#A04040" transform="translate(0,0)"/>
<path d="" fill="#924949" transform="translate(0,0)"/>
<path d="" fill="#924949" transform="translate(0,0)"/>
<path d="" fill="#804040" transform="translate(0,0)"/>
<path d="" fill="#924949" transform="translate(0,0)"/>
<path d="" fill="#550055" transform="translate(0,0)"/>
<path d="" fill="#800000" transform="translate(0,0)"/>
<path d="" fill="#550055" transform="translate(0,0)"/>
<path d="" fill="#800000" transform="translate(0,0)"/>
<path d="" fill="#9D3B3B" transform="translate(0,0)"/>
<path d="" fill="#99334C" transform="translate(0,0)"/>
<path d="" fill="#800000" transform="translate(0,0)"/>
<path d="" fill="#800000" transform="translate(0,0)"/>
<path d="" fill="#800000" transform="translate(0,0)"/>
<path d="" fill="#A24545" transform="translate(0,0)"/>
<path d="" fill="#800000" transform="translate(0,0)"/>
<path d="" fill="#A04040" transform="translate(0,0)"/>
<path d="" fill="#AA3838" transform="translate(0,0)"/>
<path d="" fill="#924949" transform="translate(0,0)"/>
<path d="" fill="#AA2A2A" transform="translate(0,0)"/>
<path d="" fill="#AA2A2A" transform="translate(0,0)"/>
<path d="" fill="#800000" transform="translate(0,0)"/>
<path d="" fill="#993333" transform="translate(0,0)"/>
<path d="" fill="#800000" transform="translate(0,0)"/>
<path d="" fill="#804040" transform="translate(0,0)"/>
<path d="" fill="#800000" transform="translate(0,0)"/>
<path d="" fill="#A24545" transform="translate(0,0)"/>
<path d="" fill="#550055" transform="translate(0,0)"/>
<path d="" fill="#800000" transform="translate(0,0)"/>
<path d="" fill="#924949" transform="translate(0,0)"/>
<path d="" fill="#A04040" transform="translate(0,0)"/>
<path d="" fill="#550055" transform="translate(0,0)"/>
<path d="" fill="#924949" transform="translate(0,0)"/>
<path d="" fill="#804040" transform="translate(0,0)"/>
<path d="" fill="#9D3B3B" transform="translate(0,0)"/>
<path d="" fill="#804040" transform="translate(0,0)"/>
<path d="" fill="#800000" transform="translate(0,0)"/>
<path d="" fill="#993333" transform="translate(0,0)"/>
<path d="" fill="#AA3838" transform="translate(0,0)"/>
<path d="" fill="#99334C" transform="translate(0,0)"/>
<path d="" fill="#AA2A2A" transform="translate(0,0)"/>
<path d="" fill="#99334C" transform="translate(0,0)"/>
<path d="" fill="#550055" transform="translate(0,0)"/>
<path d="" fill="#800000" transform="translate(0,0)"/>
<path d="" fill="#AA3838" transform="translate(0,0)"/>
<path d="" fill="#800000" transform="translate(0,0)"/>
<path d="" fill="#A04040" transform="translate(0,0)"/>
<path d="" fill="#804040" transform="translate(0,0)"/>
<path d="" fill="#9D3B3B" transform="translate(0,0)"/>
<path d="" fill="#804040" transform="translate(0,0)"/>
</svg>
